<svg xmlns="http://www.w3.org/2000/svg" width="28" height="29" viewBox="0 0 28 29"><defs><style>.a{fill:#737d98;stroke:#737d98;}.b{fill:#fff;}.c{stroke:none;}.d{fill:none;}</style></defs><g class="a"><rect class="c" width="28" height="29" rx="5"/><rect class="d" x="0.5" y="0.5" width="27" height="28" rx="4.5"/></g><g transform="translate(9 10)"><path class="b" d="M.625,10A.59.59,0,0,1,0,9.375V7.5a.567.567,0,0,1,.187-.437L5.063,2.188l2.75,2.75L2.938,9.812A.567.567,0,0,1,2.5,10ZM5.937,1.312,7.062.187a.605.605,0,0,1,.875,0L9.813,2.063a.6.6,0,0,1,0,.875L8.688,4.062Z"/></g></svg>