<svg xmlns="http://www.w3.org/2000/svg" width="16" height="15" viewBox="0 0 16 15"><defs><style>.a{fill:#fff;}</style></defs><g transform="translate(0 0)"><path class="a" d="M15.5,17.99H9v-1.5a.5.5,0,0,0-.181-.385A.491.491,0,0,0,8.408,16l-8,1.5A.5.5,0,0,0,0,17.99v11a.5.5,0,0,0,.408.491l8,1.5a.47.47,0,0,0,.092.009.5.5,0,0,0,.5-.5v-1.5h6.5a.5.5,0,0,0,.5-.5v-10A.5.5,0,0,0,15.5,17.99ZM6.876,25.161a.5.5,0,1,1-.752.658L4.67,24.158,3.395,25.8a.5.5,0,0,1-.79-.615L4,23.391,2.624,21.819a.5.5,0,0,1,.753-.658l1.248,1.426,1.481-1.9a.5.5,0,0,1,.789.615l-1.6,2.056ZM15,27.99H9v-1h1.5a.5.5,0,1,0,0-1H9v-1h1.5a.5.5,0,1,0,0-1H9v-1h1.5a.5.5,0,1,0,0-1H9v-1h1.5a.5.5,0,1,0,0-1H9v-1h6Z" transform="translate(0 -15.989)"/><path class="a" d="M385.5,144.011h-1a.5.5,0,1,0,0,1h1a.5.5,0,1,0,0-1Z" transform="translate(-372 -140.011)"/><path class="a" d="M385.5,208.011h-1a.5.5,0,1,0,0,1h1a.5.5,0,1,0,0-1Z" transform="translate(-372 -202.011)"/><path class="a" d="M385.5,272.011h-1a.5.5,0,1,0,0,1h1a.5.5,0,1,0,0-1Z" transform="translate(-372 -264.011)"/><path class="a" d="M385.5,336.011h-1a.5.5,0,1,0,0,1h1a.5.5,0,1,0,0-1Z" transform="translate(-372 -326.011)"/></g></svg>