<svg xmlns="http://www.w3.org/2000/svg" width="16" height="15" viewBox="0 0 16 15"><defs><style>.a{fill:#fff;}</style></defs><g transform="translate(0 -18.066)"><path class="a" d="M170.134,399.834h-4.622a.538.538,0,0,0,0,1.076h4.622a.538.538,0,0,0,0-1.076Z" transform="translate(-159.822 -369.734)"/><path class="a" d="M170.134,346.006h-4.622a.538.538,0,0,0,0,1.076h4.622a.538.538,0,0,0,0-1.076Z" transform="translate(-159.822 -317.603)"/><path class="a" d="M14.756,21.717h-1.7V18.6a.536.536,0,0,0-.533-.538H3.475a.536.536,0,0,0-.533.538v3.114h-1.7A1.251,1.251,0,0,0,0,22.973v5.412A1.251,1.251,0,0,0,1.244,29.64h1.7v2.888a.536.536,0,0,0,.533.538h9.05a.536.536,0,0,0,.533-.538V29.64h1.7A1.251,1.251,0,0,0,16,28.385V22.973A1.251,1.251,0,0,0,14.756,21.717ZM4.008,19.142h7.984v2.576H4.008ZM11.992,31.99H4.008v-4.4h7.984Zm.533-7.114H11.168a.538.538,0,0,1,0-1.076h1.358a.538.538,0,0,1,0,1.076Z"/></g></svg>