<svg xmlns="http://www.w3.org/2000/svg" width="40" height="33" viewBox="0 0 40 33"><defs><style>.a{fill:#fff;stroke:rgba(0,0,0,0);stroke-dasharray:4 4;}</style></defs><g transform="translate(0.5 0.5)"><path class="a" d="M12.56,32h0L3,32a3,3,0,0,1-3-3V3A3,3,0,0,1,3,0H36a3,3,0,0,1,3,3V29a3,3,0,0,1-3,3H25.989l1.831-.766a.742.742,0,0,0,.407-.17c.449-.189.8-.336,1.065-.444,1.056-.438,1.056-.438,1.161-.55l.013-.014a3.794,3.794,0,0,0,.724-4.124,3.7,3.7,0,0,0-3.439-2.315H27.7a18.053,18.053,0,0,0-2.28.856l-.013,0-2.887,1.13c-.018,0-.632.238-1.824.7-.875.342-1.786.7-1.8.706a.376.376,0,0,0-.235.291.383.383,0,0,0,.128.356,4.2,4.2,0,0,1,1.423,3.731,4.292,4.292,0,0,1-.122.606h-1.6a2.623,2.623,0,0,0,.259-1.1,2.663,2.663,0,0,0-.755-1.91,2.578,2.578,0,0,0-1.869-.8H15.77a.763.763,0,0,1-.289-1.472l5.626-2.2a.744.744,0,0,0,.419-.41.774.774,0,0,0,0-.6,46.549,46.549,0,0,1-2.78-12.145.755.755,0,0,0-.756-.7.729.729,0,0,0-.616.339l-1.085,1.652-1.625-1.1a.737.737,0,0,0-.414-.129.752.752,0,0,0-.729.577l-.491,2-1.365-.924a.737.737,0,0,0-.414-.129.752.752,0,0,0-.729.577l-.493,2L8.666,14.6a.727.727,0,0,0-.413-.129A.756.756,0,0,0,7.5,15.3,52.131,52.131,0,0,0,9.3,24.979a22.229,22.229,0,0,0,3.078,6.783c.059.081.121.16.185.237ZM24.75,19.363a.737.737,0,0,0-.53.223.77.77,0,0,0,0,1.077,2.341,2.341,0,0,0,1.28.624v.806a.75.75,0,1,0,1.5,0v-.918A2.126,2.126,0,0,0,28.468,19.2a2.22,2.22,0,0,0-1.355-2.141l-1.151-.484a.723.723,0,0,1-.423-.782c.032-.167.188-.557.932-.557a1.127,1.127,0,0,1,.75.223.742.742,0,0,0,1.061,0,.772.772,0,0,0,0-1.078A2.361,2.361,0,0,0,27,13.758v-.806a.75.75,0,1,0-1.5,0v.919a2.129,2.129,0,0,0-1.467,1.979,2.215,2.215,0,0,0,1.354,2.135l1.152.484a.708.708,0,0,1,.418.518.659.659,0,0,1-.177.6,1.38,1.38,0,0,1-1.5,0A.742.742,0,0,0,24.75,19.363Zm-12,4.254a.746.746,0,0,1-.7-.479.759.759,0,0,1,.008-.582.747.747,0,0,1,.41-.408l3.748-1.524a.737.737,0,0,1,.28-.054.75.75,0,0,1,.7.478.771.771,0,0,1-.418.992l-3.75,1.524A.754.754,0,0,1,12.751,23.617Zm-.707-3.046H12a.75.75,0,0,1-.7-.479.768.768,0,0,1,.418-.99l3.75-1.524a.712.712,0,0,1,.279-.055.748.748,0,0,1,.7.479.771.771,0,0,1-.007.582.756.756,0,0,1-.411.408c-.853.347-1.518.618-2.037.83l-.149.061-.065.027A8.93,8.93,0,0,1,12.044,20.57Z" transform="translate(0 0)"/></g></svg>