<svg xmlns="http://www.w3.org/2000/svg" width="39" height="39.002" viewBox="0 0 39 39.002"><defs><style>.a{fill:#737d98;}</style></defs><path class="a" d="M18.8,39H17.41V33.643a3,3,0,0,1,3-3h3.964V16.516a.209.209,0,0,0-.366-.137l-2.523,2.89L19.616,16.7a.7.7,0,0,0-1.11-.022l-2.043,2.589L13.79,16.54a.7.7,0,0,0-1.056.071l-1.982,2.658L7.426,16.363a.276.276,0,0,0-.182-.069.28.28,0,0,0-.28.279V39H10.52L4,39a4,4,0,0,1-4-4V4A4,4,0,0,1,4,0H35a4,4,0,0,1,4,4V35a4,4,0,0,1-4,4H32.035V34.036a2,2,0,0,0-2-2H20.8a2,2,0,0,0-2,2V39Zm8.589-13.63a.97.97,0,0,0-.656.247.793.793,0,0,0,0,1.2,3.059,3.059,0,0,0,1.585.694v.9a.933.933,0,0,0,1.858,0V27.384A2.4,2.4,0,0,0,32,25.181a2.465,2.465,0,0,0-1.678-2.362l-1.426-.538a.791.791,0,0,1-.528-.847c.073-.4.506-.64,1.157-.64a1.5,1.5,0,0,1,.929.247.994.994,0,0,0,1.313,0,.793.793,0,0,0,0-1.2,3.05,3.05,0,0,0-1.585-.693v-.9a.933.933,0,0,0-1.858,0v1.02a2.407,2.407,0,0,0-1.817,2.21,2.462,2.462,0,0,0,1.678,2.357l1.426.538a.816.816,0,0,1,.523.595.684.684,0,0,1-.224.644,1.866,1.866,0,0,1-1.857,0A.973.973,0,0,0,27.392,25.372ZM19.5,27.857H11.84a.7.7,0,0,1,0-1.393H19.5a.7.7,0,0,1,0,1.393Zm0-3.482H11.84a.7.7,0,1,1,0-1.393H19.5a.7.7,0,0,1,0,1.393Z" transform="translate(0 0)"/></svg>